# xmcd CD database file
#
# Track frame offsets:
#	150
#	17285
#	36043
#	49786
#	72118
#	93449
#	111153
#	130982
#	148576
#	167288
#	183273
#
# Disc length: 2728 seconds
#
# Revision: 1
# Processed by: cddbd v1.5.2PL0 Copyright (c) Steve Scherf et al.
# Submitted via: CDex 1.72
#
DISCID=860aa60b
DTITLE=Armstrong, James (USA-14-Guitar Angles-Chicago bls) - Guitar Angels
DYEAR=2014
DGENRE=Blues
TTITLE0=Grandma's Got a New Friend
TTITLE1=Healing Time
TTITLE2=Take It To the Limit
TTITLE3=Guitar Angels
TTITLE4=Moving To Nashville
TTITLE5=Goodbye Kiss
TTITLE6=Bank of Love
TTITLE7=Saturday Night Women
TTITLE8=Blues Ain't Nothin'
TTITLE9=Runaway Train
TTITLE10=Guitr Angel [Radio Version]
EXTD=YEAR: 2014
EXTT0=
EXTT1=
EXTT2=
EXTT3=
EXTT4=
EXTT5=
EXTT6=
EXTT7=
EXTT8=
EXTT9=
EXTT10=
PLAYORDER=
